<?xml version="1.0" standalone="no"?>
<!DOCTYPE svg PUBLIC "-//W3C//DTD SVG 20010904//EN"
 "http://www.w3.org/TR/2001/REC-SVG-20010904/DTD/svg10.dtd">
<svg version="1.0" xmlns="http://www.w3.org/2000/svg"
 width="1477.000000pt" height="1233.000000pt" viewBox="0 0 1477.000000 1233.000000"
 preserveAspectRatio="xMidYMid meet">

<g transform="translate(0.000000,1233.000000) scale(0.100000,-0.100000)"
fill="#000000" stroke="none">
<path d="M2745 12310 c-12 -4 -26 -14 -32 -22 -7 -7 -61 -194 -122 -413 -175
-639 -2181 -7894 -2543 -9198 -22 -81 -38 -151 -34 -155 4 -4 39 -7 77 -7 60
0 72 3 93 25 22 21 1682 3612 3768 8150 236 514 437 943 445 953 20 21 76 23
93 2 10 -12 4 -34 -33 -117 -25 -57 -196 -476 -380 -933 -185 -456 -998 -2463
-1807 -4460 -810 -1996 -1476 -3643 -1481 -3660 -11 -38 4 -55 58 -62 35 -5
41 -2 58 23 10 16 1436 1984 3169 4374 3853 5315 3575 4931 3594 4953 19 21
70 22 100 1 28 -19 28 -35 -1 -71 -13 -15 -205 -293 -427 -618 -222 -324
-1558 -2275 -2970 -4335 -1411 -2060 -2674 -3902 -2806 -4095 -132 -192 -251
-365 -264 -383 l-25 -34 33 -29 c56 -50 87 -42 190 49 413 370 4433 3970 6495
5817 1412 1265 2576 2301 2587 2303 21 4 70 -54 70 -82 0 -10 -42 -57 -92
-105 -51 -48 -255 -240 -453 -426 -415 -391 -1517 -1429 -5450 -5140 -1551
-1463 -2844 -2682 -2873 -2710 l-54 -50 42 -57 c23 -32 48 -58 56 -58 9 0 34
11 57 24 23 13 560 288 1192 611 1015 519 3476 1778 5665 2899 405 207 743
376 752 376 20 0 37 -20 48 -59 7 -26 5 -36 -13 -55 -12 -14 -445 -259 -962
-545 -517 -286 -2193 -1217 -3725 -2068 l-2785 -1548 -3 -38 c-4 -50 40 -97
92 -97 19 0 995 231 2168 514 1173 283 2592 625 3153 760 561 135 1180 284
1375 331 195 48 367 89 381 92 25 5 27 2 34 -35 9 -57 -6 -78 -67 -96 -336
-97 -5777 -1667 -6287 -1813 -555 -160 -686 -201 -697 -218 -10 -16 -12 -36
-6 -81 l7 -59 125 3 c216 6 3125 143 3420 162 476 30 867 90 1260 191 844 218
1600 580 2269 1089 651 495 1077 1028 1324 1655 133 338 191 631 190 955 -1
343 -66 616 -223 935 -200 407 -493 730 -870 961 -320 194 -733 332 -1140 380
-80 9 -151 18 -159 21 -31 9 26 43 114 68 831 238 1622 689 2160 1229 552 555
831 1156 886 1906 49 669 -182 1180 -703 1553 -178 127 -393 231 -663 322
-572 193 -1259 272 -2131 246 -345 -10 -2988 -8 -4689 3 -335 2 -619 1 -630
-4z"/>
<path d="M11430 11801 c-45 -6 -44 -6 65 -35 241 -63 433 -135 626 -232 710
-359 1034 -924 981 -1712 -19 -288 -58 -499 -138 -741 -135 -411 -362 -779
-699 -1129 -531 -554 -1213 -966 -2105 -1273 -133 -46 -177 -65 -155 -67 17
-1 90 -12 164 -23 856 -132 1536 -590 1873 -1263 108 -216 178 -435 215 -676
24 -159 24 -508 0 -675 -50 -337 -149 -638 -312 -953 -446 -857 -1254 -1580
-2322 -2076 -594 -275 -1151 -436 -1788 -515 -464 -58 -586 -65 -3295 -172
-1756 -69 -2338 -95 -2349 -105 -7 -7 -14 -31 -15 -54 -1 -34 4 -46 27 -66
l28 -24 2367 1 c2446 0 3773 10 4042 28 740 52 1197 121 1652 251 419 119 744
247 1158 456 495 250 875 504 1218 817 629 572 1100 1424 1203 2177 22 154 17
470 -9 624 -157 923 -656 1566 -1495 1926 -199 85 -466 155 -672 175 -38 4
-76 11 -84 15 -9 5 53 29 165 65 753 240 1338 548 1859 979 152 126 396 370
505 506 410 513 621 1108 620 1754 -1 378 -87 676 -280 964 -70 104 -237 283
-349 374 -372 301 -937 516 -1612 612 -378 55 -929 88 -1089 67z"/>
</g>
</svg>
