<?xml version="1.0" standalone="no"?>
<!DOCTYPE svg PUBLIC "-//W3C//DTD SVG 20010904//EN"
 "http://www.w3.org/TR/2001/REC-SVG-20010904/DTD/svg10.dtd">
<svg version="1.0" xmlns="http://www.w3.org/2000/svg"
 width="1388.000000pt" height="1505.000000pt" viewBox="0 0 1388.000000 1505.000000"
 preserveAspectRatio="xMidYMid meet">

<g transform="translate(0.000000,1505.000000) scale(0.100000,-0.100000)"
fill="#000000" stroke="none">
<path d="M10103 15029 c-1683 -107 -3649 -1034 -5402 -2548 -387 -333 -946
-877 -1275 -1241 -1139 -1255 -2015 -2597 -2623 -4015 -554 -1293 -832 -2585
-785 -3655 18 -392 47 -628 119 -940 239 -1046 808 -1798 1688 -2230 322 -158
737 -278 1105 -321 340 -39 637 86 946 397 238 240 442 541 674 999 225 443
455 1017 648 1620 316 982 558 2001 666 2805 77 572 87 1086 26 1325 -39 153
-108 237 -253 309 -157 78 -325 95 -549 56 -230 -39 -434 -115 -747 -276 -269
-139 -373 -166 -497 -129 -84 25 -124 81 -124 173 0 254 292 604 965 1158 830
683 1842 1375 2445 1673 292 144 435 180 760 188 167 5 212 2 315 -15 394 -68
634 -237 731 -517 26 -73 28 -92 27 -220 0 -181 -7 -207 -217 -791 -923 -2576
-1436 -4381 -1596 -5616 -47 -369 -58 -800 -26 -1021 52 -362 185 -561 409
-608 73 -16 206 -5 312 26 82 24 105 37 275 157 747 529 1415 1108 2054 1778
274 287 409 434 557 605 1028 1189 1850 2500 2408 3841 253 609 460 1278 582
1878 99 493 138 835 146 1306 11 640 -50 1112 -207 1603 -113 352 -304 737
-495 995 -355 480 -837 836 -1405 1040 -491 176 -1065 249 -1657 211z m-75
-1159 c131 -34 216 -82 313 -180 73 -72 94 -101 132 -180 56 -117 67 -169 67
-319 0 -240 -66 -477 -213 -766 -142 -280 -406 -615 -639 -812 -458 -388 -975
-607 -1388 -590 -208 9 -345 61 -459 176 -226 226 -269 559 -129 989 119 364
432 830 736 1094 336 293 682 485 1024 568 222 53 397 60 556 20z"/>
</g>
</svg>
