<?xml version="1.0" standalone="no"?>
<!DOCTYPE svg PUBLIC "-//W3C//DTD SVG 20010904//EN"
 "http://www.w3.org/TR/2001/REC-SVG-20010904/DTD/svg10.dtd">
<svg version="1.0" xmlns="http://www.w3.org/2000/svg"
 width="310.000000pt" height="308.000000pt" viewBox="0 0 310.000000 308.000000"
 preserveAspectRatio="xMidYMid meet">

<g transform="translate(0.000000,308.000000) scale(0.100000,-0.100000)"
fill="#000000" stroke="none">
<path d="M1490 2994 c0 -14 -36 -305 -81 -647 -44 -342 -88 -684 -98 -759 -9
-76 -20 -140 -22 -143 -5 -4 -63 1 -683 65 -164 17 -301 29 -303 26 -3 -2 28
-23 69 -47 40 -23 174 -102 298 -174 124 -73 282 -165 353 -204 70 -40 127
-76 127 -81 0 -5 -50 -122 -111 -262 -61 -139 -124 -282 -139 -318 -15 -36
-55 -127 -88 -203 -33 -75 -58 -137 -55 -137 3 0 46 37 97 82 173 156 490 443
569 516 l78 73 108 -98 c395 -361 633 -573 643 -573 5 0 7 4 4 8 -12 20 -407
915 -404 916 19 13 238 139 521 302 241 137 342 200 327 202 -12 2 -88 -4
-169 -12 -132 -15 -488 -52 -716 -76 -49 -5 -90 -8 -91 -7 -1 1 -23 157 -49
347 -25 190 -60 442 -76 560 -16 118 -38 280 -49 360 -38 281 -43 310 -52 310
-4 0 -8 -12 -8 -26z m12 -766 l-2 -666 -88 -53 c-48 -29 -90 -57 -94 -63 -12
-18 -10 0 47 439 30 231 71 548 91 705 33 267 41 319 47 309 1 -2 1 -304 -1
-671z m52 -707 c28 -16 74 -41 101 -55 l50 -25 -190 0 c-209 0 -209 0 -105 54
25 13 54 30 65 39 26 20 19 21 79 -13z m-1168 -10 c5 -4 81 -31 169 -59 376
-119 550 -175 553 -178 2 -1 12 -46 23 -100 10 -53 21 -100 25 -103 6 -6 -1
36 -22 134 l-13 60 77 72 c42 39 78 71 79 69 2 -2 -90 -285 -112 -343 -4 -13
-10 -10 -255 132 -174 101 -387 223 -425 245 -66 37 -129 80 -119 80 5 0 14
-4 20 -9z m2244 0 c-14 -5 -59 -18 -100 -31 -41 -12 -127 -39 -190 -60 -162
-54 -435 -140 -442 -140 -3 0 -36 29 -74 65 -38 35 -73 65 -79 65 -5 0 23 -30
63 -66 55 -51 72 -73 71 -93 0 -41 -35 -186 -41 -176 -17 29 -108 339 -101
345 4 4 78 15 163 24 459 48 628 66 655 69 17 2 46 4 65 5 31 0 32 0 10 -7z
m-1009 -139 c124 -65 174 -212 114 -339 -15 -34 -31 -53 -42 -54 -10 -1 -29
-3 -43 -5 -14 -1 -46 0 -72 3 l-48 6 0 44 c0 36 4 46 20 50 11 3 18 9 15 13
-9 14 24 32 45 25 18 -6 20 -12 15 -36 -4 -18 -2 -36 5 -44 15 -18 -5 -28 -47
-23 -21 2 -27 8 -25 22 2 11 -1 15 -7 11 -29 -17 -5 -45 49 -58 20 -5 27 -1
38 21 8 17 9 28 2 30 -14 5 -12 23 5 42 9 10 13 24 9 33 -6 18 -64 42 -64 26
0 -5 -6 -9 -13 -9 -7 0 -18 -9 -25 -20 -7 -12 -16 -18 -21 -16 -4 3 -18 -5
-31 -19 -12 -13 -28 -21 -34 -19 -9 3 -11 -5 -8 -28 4 -29 6 -30 13 -11 4 11
13 24 19 28 14 8 34 -16 21 -25 -5 -3 -12 -16 -16 -29 -4 -13 -10 -19 -14 -14
-3 5 -14 12 -23 16 -10 3 -19 16 -19 27 -1 11 -3 25 -4 30 -1 6 -3 15 -4 20
-2 16 -71 -43 -71 -61 0 -5 11 2 23 17 27 31 51 25 44 -12 -3 -20 1 -26 21
-31 23 -6 24 -7 6 -13 -47 -17 -72 -20 -70 -7 0 6 -3 13 -9 13 -5 1 -9 -2 -8
-6 5 -19 -39 -17 -59 3 -56 59 -79 190 -46 268 59 138 228 200 359 131z m229
-372 c0 -4 41 -99 91 -211 50 -112 113 -253 139 -314 26 -60 69 -157 94 -214
33 -75 41 -99 26 -86 -10 9 -18 20 -17 24 1 6 -26 51 -50 81 -18 23 -186 253
-250 344 -16 22 -52 71 -80 109 -29 39 -53 74 -53 78 0 4 18 46 40 94 22 49
38 90 35 93 -3 3 -19 -26 -35 -64 -46 -103 -52 -114 -67 -115 -7 -1 -16 -2
-20 -3 -5 -1 -35 -5 -68 -9 -33 -4 -73 -10 -90 -14 -28 -5 67 71 243 194 42
30 62 34 62 13z m-518 -96 c79 -59 143 -112 143 -118 0 -10 -70 -75 -466 -431
-79 -71 -148 -134 -154 -140 -25 -26 -65 -58 -65 -52 0 3 12 19 28 35 35 38
62 71 62 77 0 5 150 220 167 240 5 6 31 42 57 80 27 39 75 105 107 147 l58 77
-19 38 c-9 21 -28 61 -40 88 -12 28 -24 53 -27 58 -11 18 16 0 149 -99z m207
60 c6 4 11 2 11 -3 0 -6 -9 -11 -19 -11 -25 0 -37 -18 -22 -33 7 -7 12 -6 17
6 4 12 13 15 30 11 18 -5 24 -2 24 10 0 21 46 21 67 1 13 -14 10 -18 -34 -37
-62 -29 -153 -30 -211 -4 -47 21 -56 41 -16 33 15 -3 42 1 60 9 18 8 40 11 48
8 11 -4 16 0 16 12 0 15 2 16 9 5 5 -7 14 -10 20 -7z"/>
<path d="M1493 1363 c-8 -3 -13 -22 -13 -45 0 -23 3 -38 8 -34 4 4 7 19 7 33
0 15 6 28 14 31 8 3 11 0 7 -7 -4 -6 -3 -11 2 -11 20 0 4 -43 -24 -61 -19 -12
-23 -19 -13 -19 9 0 22 7 29 15 7 8 18 15 24 15 14 0 9 58 -6 78 -11 13 -15
13 -35 5z"/>
<path d="M1363 1333 c9 -2 15 -9 11 -14 -3 -5 -9 -7 -14 -4 -4 3 -3 -6 3 -20
l12 -24 7 26 c9 31 3 43 -20 42 -15 -1 -15 -2 1 -6z"/>
<path d="M1520 1255 c-7 -9 -8 -15 -2 -15 5 0 12 7 16 15 3 8 4 15 2 15 -2 0
-9 -7 -16 -15z"/>
<path d="M1377 1240 c3 -11 7 -20 9 -20 2 0 4 9 4 20 0 11 -4 20 -9 20 -5 0
-7 -9 -4 -20z"/>
<path d="M1447 1236 c-4 -9 -3 -15 2 -12 5 3 14 -1 21 -9 10 -12 9 -15 -8 -15
-26 0 -34 -52 -14 -92 18 -38 28 -29 13 13 -12 35 -15 76 -5 66 4 -3 15 -2 25
4 26 14 25 -7 -1 -23 -11 -7 -20 -17 -20 -22 0 -4 6 -3 13 3 8 6 18 7 22 3 5
-4 4 -1 0 7 -6 11 -4 13 8 8 11 -4 17 -1 17 8 0 7 5 17 10 20 6 4 10 -11 10
-37 0 -27 -3 -38 -9 -30 -7 11 -9 10 -14 -3 -4 -9 -3 -14 2 -10 5 3 11 -1 14
-7 2 -7 8 -1 12 14 4 17 12 25 21 21 8 -3 14 0 14 6 0 6 -5 10 -12 9 -17 -4
-22 31 -7 58 15 28 7 41 -13 21 -19 -19 -70 -18 -84 1 -9 13 -12 13 -17 -2z"/>
<path d="M1406 1231 c-3 -5 1 -14 8 -20 12 -10 13 -8 9 8 -6 23 -9 25 -17 12z"/>
<path d="M1391 1194 c0 -11 3 -14 6 -6 3 7 2 16 -1 19 -3 4 -6 -2 -5 -13z"/>
<path d="M1402 1150 c0 -14 2 -19 5 -12 2 6 2 18 0 25 -3 6 -5 1 -5 -13z"/>
<path d="M1411 1104 c0 -11 3 -14 6 -6 3 7 2 16 -1 19 -3 4 -6 -2 -5 -13z"/>
<path d="M1586 1081 c-4 -6 -4 -11 1 -11 4 0 1 -5 -7 -10 -8 -5 -10 -10 -5
-10 20 0 34 16 26 29 -6 9 -11 10 -15 2z"/>
<path d="M1585 1030 c3 -5 11 -10 16 -10 6 0 7 5 4 10 -3 6 -11 10 -16 10 -6
0 -7 -4 -4 -10z"/>
<path d="M1280 812 c0 -5 36 -12 80 -16 44 -3 87 -9 96 -13 11 -4 15 -2 11 4
-4 6 -39 13 -79 17 -40 4 -81 9 -90 12 -10 3 -18 1 -18 -4z"/>
<path d="M1464 935 c-17 -13 -17 -14 -2 -15 9 0 20 5 23 11 11 17 0 20 -21 4z"/>
</g>
</svg>
