<?xml version="1.0" standalone="no"?>
<!DOCTYPE svg PUBLIC "-//W3C//DTD SVG 20010904//EN"
 "http://www.w3.org/TR/2001/REC-SVG-20010904/DTD/svg10.dtd">
<svg version="1.0" xmlns="http://www.w3.org/2000/svg"
 width="1480.000000pt" height="1273.000000pt" viewBox="0 0 1480.000000 1273.000000"
 preserveAspectRatio="xMidYMid meet">

<g transform="translate(0.000000,1273.000000) scale(0.100000,-0.100000)"
fill="#000000" stroke="none">
<path d="M6960 12714 c-847 -56 -1507 -180 -2210 -413 -2550 -847 -4353 -2827
-4684 -5143 -45 -314 -51 -406 -51 -798 0 -399 10 -532 60 -855 238 -1522
1114 -2917 2473 -3939 2070 -1558 5005 -1990 7577 -1116 980 333 1879 854
2615 1516 161 144 478 467 604 614 632 738 1069 1572 1285 2450 125 508 167
895 158 1438 -5 318 -18 477 -58 737 -235 1528 -1114 2933 -2474 3955 -621
467 -1369 859 -2130 1116 -675 229 -1302 357 -2070 425 -123 10 -977 21 -1095
13z m-2324 -3025 c206 -20 457 -80 653 -155 147 -57 421 -200 566 -295 179
-118 366 -270 517 -421 l128 -128 0 -635 0 -635 -67 42 c-295 181 -874 372
-1363 449 -353 55 -780 42 -1159 -36 -462 -95 -843 -300 -1088 -586 -169 -196
-284 -453 -324 -722 -7 -45 -13 -152 -13 -237 0 -230 33 -371 131 -560 206
-402 599 -676 1133 -791 92 -20 134 -23 335 -23 213 0 240 2 360 27 478 101
882 350 1323 814 225 236 297 327 877 1109 77 104 284 381 460 615 176 234
348 463 381 510 428 590 893 1038 1348 1299 489 281 1074 396 1671 329 349
-39 727 -169 1019 -351 218 -136 490 -377 652 -578 326 -402 563 -895 697
-1445 19 -77 37 -157 41 -177 l7 -38 -360 0 -359 0 -51 69 c-194 262 -574 494
-941 575 -173 38 -304 50 -480 43 -528 -20 -985 -232 -1472 -684 -276 -256
-540 -579 -1098 -1344 -549 -756 -1028 -1338 -1420 -1729 -420 -419 -798 -666
-1244 -811 -261 -85 -460 -114 -796 -114 -305 0 -483 23 -735 96 -899 259
-1601 1041 -1911 2129 -58 203 -119 506 -141 700 -22 194 -25 722 -5 905 61
553 179 986 382 1400 99 201 163 306 284 469 286 385 655 656 1090 801 299 99
673 143 972 114z m8324 -3979 c0 -56 -68 -417 -110 -580 -124 -486 -351 -940
-640 -1281 -348 -410 -799 -669 -1320 -759 -248 -43 -475 -51 -700 -26 -198
23 -343 60 -535 136 -492 195 -975 617 -1367 1194 l-68 100 0 464 c0 370 3
462 13 454 32 -26 733 -359 897 -425 471 -191 837 -260 1267 -237 213 11 308
23 468 56 266 56 491 136 685 244 307 170 510 363 667 633 l22 37 361 0 c235
0 360 -3 360 -10z"/>
</g>
</svg>
