<?xml version="1.0" encoding="UTF-8"?>
<!DOCTYPE svg PUBLIC "-//W3C//DTD SVG 1.1//EN" "http://www.w3.org/Graphics/SVG/1.1/DTD/svg11.dtd">
<svg xmlns="http://www.w3.org/2000/svg" version="1.1" width="158px" height="174px" style="shape-rendering:geometricPrecision; text-rendering:geometricPrecision; image-rendering:optimizeQuality; fill-rule:evenodd; clip-rule:evenodd" xmlns:xlink="http://www.w3.org/1999/xlink">
<g><path style="opacity:0.293" fill="#f7debb" d="M 143.5,18.5 C 143.167,18.5 142.833,18.5 142.5,18.5C 133.667,17.18 124.833,17.18 116,18.5C 115.5,35.4967 115.333,52.4967 115.5,69.5C 115.5,70.1667 115.167,70.5 114.5,70.5C 114.5,55.8333 114.5,41.1667 114.5,26.5C 114.216,23.2234 114.549,20.0567 115.5,17C 124.5,16.3333 133.5,16.3333 142.5,17C 143.056,17.3826 143.389,17.8826 143.5,18.5 Z"/></g>
<g><path style="opacity:1" fill="#e99d27" d="M 39.5,70.5 C 39.179,73.5769 40.179,75.9103 42.5,77.5C 44.9495,82.8843 48.2829,87.7176 52.5,92C 56.9913,94.6581 61.6579,96.8248 66.5,98.5C 66.9175,99.2216 67.5842,99.7216 68.5,100C 71.1667,100.167 73.8333,100.333 76.5,100.5C 80.7773,100.663 84.7773,99.9967 88.5,98.5C 91.3208,97.9258 93.6541,96.5924 95.5,94.5C 98.7105,93.3072 101.711,91.6405 104.5,89.5C 106.587,88.4154 107.92,86.7488 108.5,84.5C 111.467,80.2709 113.467,75.6043 114.5,70.5C 115.167,70.5 115.5,70.1667 115.5,69.5C 116.497,53.0084 116.83,36.3417 116.5,19.5C 124.833,19.5 133.167,19.5 141.5,19.5C 141.17,37.6744 141.503,55.6744 142.5,73.5C 142.5,101.167 142.5,128.833 142.5,156.5C 133.833,156.5 125.167,156.5 116.5,156.5C 116.5,143.833 116.5,131.167 116.5,118.5C 113.169,118.018 110.503,119.018 108.5,121.5C 101.047,124.942 93.3806,127.608 85.5,129.5C 80.1563,129.666 74.8229,129.499 69.5,129C 63.1202,127.593 56.7869,126.093 50.5,124.5C 49.3126,122.025 47.3126,121.025 44.5,121.5C 41.3844,119.085 38.3844,116.419 35.5,113.5C 34.4154,111.413 32.7488,110.08 30.5,109.5C 25.5267,104.882 21.5267,99.5489 18.5,93.5C 18.2451,91.0326 17.2451,89.0326 15.5,87.5C 13.9036,81.8744 12.4036,76.2078 11,70.5C 10.2185,65.0833 10.3852,59.7499 11.5,54.5C 12.1658,50.1795 12.4991,45.6795 12.5,41C 12.4927,36.1139 11.8261,31.6139 10.5,27.5C 8.70733,24.366 7.37399,21.0327 6.5,17.5C 14.84,17.3336 23.1733,17.5003 31.5,18C 35.485,23.143 37.985,28.9763 39,35.5C 39.4999,47.1619 39.6665,58.8286 39.5,70.5 Z"/></g>
<g><path style="opacity:0.97" fill="#eba941" d="M 142.5,18.5 C 142.5,36.8333 142.5,55.1667 142.5,73.5C 141.503,55.6744 141.17,37.6744 141.5,19.5C 133.167,19.5 124.833,19.5 116.5,19.5C 116.83,36.3417 116.497,53.0084 115.5,69.5C 115.333,52.4967 115.5,35.4967 116,18.5C 124.833,17.18 133.667,17.18 142.5,18.5 Z"/></g>
<g><path style="opacity:0.584" fill="#858487" d="M 86.5,35.5 C 86.5,35.8333 86.5,36.1667 86.5,36.5C 78.2693,34.7372 70.2693,35.4038 62.5,38.5C 63.0577,37.2101 64.0577,36.3768 65.5,36C 72.4901,33.0189 79.4901,32.8522 86.5,35.5 Z"/></g>
<g><path style="opacity:1" fill="#0f0e13" d="M 86.5,36.5 C 91.8415,38.842 96.5082,42.1754 100.5,46.5C 101.468,49.1003 102.801,51.4336 104.5,53.5C 104.5,53.8333 104.5,54.1667 104.5,54.5C 104.575,60.5293 104.241,66.5293 103.5,72.5C 101.11,75.5662 99.1101,78.8996 97.5,82.5C 94.4887,83.6693 91.822,85.336 89.5,87.5C 87.1016,87.2594 85.1016,87.9261 83.5,89.5C 83.1667,89.5 82.8333,89.5 82.5,89.5C 77.0495,89.6354 71.7162,88.9687 66.5,87.5C 64.5786,86.6373 62.5786,85.9707 60.5,85.5C 51.9253,77.7857 48.2586,68.119 49.5,56.5C 51.5647,53.0748 53.2313,49.4081 54.5,45.5C 57.192,43.1377 59.8587,40.8044 62.5,38.5C 70.2693,35.4038 78.2693,34.7372 86.5,36.5 Z"/></g>
<g><path style="opacity:0.471" fill="#9e9d9f" d="M 86.5,36.5 C 86.5,36.1667 86.5,35.8333 86.5,35.5C 92.932,36.9332 97.5987,40.5999 100.5,46.5C 96.5082,42.1754 91.8415,38.842 86.5,36.5 Z"/></g>
<g><path style="opacity:0.376" fill="#a5a5a7" d="M 62.5,38.5 C 59.8587,40.8044 57.192,43.1377 54.5,45.5C 55.9047,41.7641 58.5713,39.4308 62.5,38.5 Z"/></g>
<g><path style="opacity:0.29" fill="#adadaf" d="M 100.5,46.5 C 102.942,48.1209 104.275,50.4542 104.5,53.5C 102.801,51.4336 101.468,49.1003 100.5,46.5 Z"/></g>
<g><path style="opacity:0.635" fill="#7d7c7f" d="M 54.5,45.5 C 53.2313,49.4081 51.5647,53.0748 49.5,56.5C 49.5,55.8333 49.5,55.1667 49.5,54.5C 50.2435,50.8876 51.9101,47.8876 54.5,45.5 Z"/></g>
<g><path style="opacity:0.564" fill="#9d9c9e" d="M 104.5,54.5 C 107.125,60.3916 107.125,66.3916 104.5,72.5C 104.167,72.5 103.833,72.5 103.5,72.5C 104.241,66.5293 104.575,60.5293 104.5,54.5 Z"/></g>
<g><path style="opacity:0.071" fill="#b6b6b7" d="M 49.5,54.5 C 49.5,55.1667 49.5,55.8333 49.5,56.5C 48.2586,68.119 51.9253,77.7857 60.5,85.5C 54.7271,82.5487 50.8938,77.882 49,71.5C 46.8765,65.6294 47.0431,59.9628 49.5,54.5 Z"/></g>
<g><path style="opacity:0.153" fill="#f8ead3" d="M 70.5,98.5 C 69.1667,98.5 67.8333,98.5 66.5,98.5C 61.6579,96.8248 56.9913,94.6581 52.5,92C 48.2829,87.7176 44.9495,82.8843 42.5,77.5C 41.7362,74.9823 40.7362,72.649 39.5,70.5C 39.6665,58.8286 39.4999,47.1619 39,35.5C 37.985,28.9763 35.485,23.143 31.5,18C 23.1733,17.5003 14.84,17.3336 6.5,17.5C 7.37399,21.0327 8.70733,24.366 10.5,27.5C 11.3825,36.467 11.7159,45.467 11.5,54.5C 10.3852,59.7499 10.2185,65.0833 11,70.5C 12.4036,76.2078 13.9036,81.8744 15.5,87.5C 16.038,89.1172 16.3713,90.7839 16.5,92.5C 13.277,86.6467 11.1103,80.3133 10,73.5C 9.82647,60.1622 9.82647,46.8289 10,33.5C 8.43806,27.65 6.60472,21.9833 4.5,16.5C 13.4653,15.4185 22.4653,15.2519 31.5,16C 32.4162,16.3742 33.2496,16.8742 34,17.5C 39.2519,27.3412 41.7519,37.8412 41.5,49C 37.5545,67.4712 43.2212,82.4712 58.5,94C 62.7152,95.2341 66.7152,96.7341 70.5,98.5 Z"/></g>
<g><path style="opacity:0.755" fill="#ecb054" d="M 10.5,27.5 C 11.8261,31.6139 12.4927,36.1139 12.5,41C 12.4991,45.6795 12.1658,50.1795 11.5,54.5C 11.7159,45.467 11.3825,36.467 10.5,27.5 Z"/></g>
<g><path style="opacity:0.871" fill="#f0c578" d="M 39.5,70.5 C 40.7362,72.649 41.7362,74.9823 42.5,77.5C 40.179,75.9103 39.179,73.5769 39.5,70.5 Z"/></g>
<g><path style="opacity:0.243" fill="#b2b2b3" d="M 103.5,72.5 C 103.833,72.5 104.167,72.5 104.5,72.5C 103.149,76.5416 100.815,79.8749 97.5,82.5C 99.1101,78.8996 101.11,75.5662 103.5,72.5 Z"/></g>
<g><path style="opacity:0.122" fill="#f9f1e3" d="M 114.5,26.5 C 114.5,41.1667 114.5,55.8333 114.5,70.5C 113.467,75.6043 111.467,80.2709 108.5,84.5C 106.413,85.5846 105.08,87.2512 104.5,89.5C 101.711,91.6405 98.7105,93.3072 95.5,94.5C 102.978,89.1739 108.478,82.1739 112,73.5C 113.103,57.7144 113.937,42.0477 114.5,26.5 Z"/></g>
<g><path style="opacity:0.243" fill="#a2a1a3" d="M 97.5,82.5 C 95.4044,85.2624 92.7377,87.2624 89.5,88.5C 89.5,88.1667 89.5,87.8333 89.5,87.5C 91.822,85.336 94.4887,83.6693 97.5,82.5 Z"/></g>
<g><path style="opacity:0.529" fill="#8f8f91" d="M 60.5,85.5 C 62.5786,85.9707 64.5786,86.6373 66.5,87.5C 66.8333,88.1667 67.1667,88.8333 67.5,89.5C 64.4542,89.2753 62.1209,87.942 60.5,85.5 Z"/></g>
<g><path style="opacity:0.827" fill="#efbd71" d="M 108.5,84.5 C 107.92,86.7488 106.587,88.4154 104.5,89.5C 105.08,87.2512 106.413,85.5846 108.5,84.5 Z"/></g>
<g><path style="opacity:0.878" fill="#39383d" d="M 66.5,87.5 C 71.7162,88.9687 77.0495,89.6354 82.5,89.5C 77.9787,90.6778 73.3121,90.6778 68.5,89.5C 68.1667,89.5 67.8333,89.5 67.5,89.5C 67.1667,88.8333 66.8333,88.1667 66.5,87.5 Z"/></g>
<g><path style="opacity:0.663" fill="#706f72" d="M 89.5,87.5 C 89.5,87.8333 89.5,88.1667 89.5,88.5C 88.4324,89.4345 87.099,89.7678 85.5,89.5C 84.8333,89.5 84.1667,89.5 83.5,89.5C 85.1016,87.9261 87.1016,87.2594 89.5,87.5 Z"/></g>
<g><path style="opacity:0.218" fill="#c3c3c4" d="M 68.5,89.5 C 73.3121,90.6778 77.9787,90.6778 82.5,89.5C 82.8333,89.5 83.1667,89.5 83.5,89.5C 84.1667,89.5 84.8333,89.5 85.5,89.5C 85.0825,90.2216 84.4158,90.7216 83.5,91C 79.1667,91.6667 74.8333,91.6667 70.5,91C 69.5842,90.7216 68.9175,90.2216 68.5,89.5 Z"/></g>
<g><path style="opacity:0.525" fill="#efc584" d="M 15.5,87.5 C 17.2451,89.0326 18.2451,91.0326 18.5,93.5C 17.8333,93.1667 17.1667,92.8333 16.5,92.5C 16.3713,90.7839 16.038,89.1172 15.5,87.5 Z"/></g>
<g><path style="opacity:0.173" fill="#f9eedb" d="M 95.5,94.5 C 93.6541,96.5924 91.3208,97.9258 88.5,98.5C 86.8333,98.5 85.1667,98.5 83.5,98.5C 87.3151,96.873 91.3151,95.5397 95.5,94.5 Z"/></g>
<g><path style="opacity:0.594" fill="#f4d4a4" d="M 66.5,98.5 C 67.8333,98.5 69.1667,98.5 70.5,98.5C 74.8333,98.5 79.1667,98.5 83.5,98.5C 85.1667,98.5 86.8333,98.5 88.5,98.5C 84.7773,99.9967 80.7773,100.663 76.5,100.5C 73.8333,100.333 71.1667,100.167 68.5,100C 67.5842,99.7216 66.9175,99.2216 66.5,98.5 Z"/></g>
<g><path style="opacity:0.098" fill="#f7e5cb" d="M 16.5,92.5 C 17.1667,92.8333 17.8333,93.1667 18.5,93.5C 21.5267,99.5489 25.5267,104.882 30.5,109.5C 31.5846,111.587 33.2512,112.92 35.5,113.5C 38.3844,116.419 41.3844,119.085 44.5,121.5C 31.7772,115.11 22.4438,105.444 16.5,92.5 Z"/></g>
<g><path style="opacity:0.867" fill="#ecb55f" d="M 30.5,109.5 C 32.7488,110.08 34.4154,111.413 35.5,113.5C 33.2512,112.92 31.5846,111.587 30.5,109.5 Z"/></g>
<g><path style="opacity:0.306" fill="#f6dcb6" d="M 44.5,121.5 C 47.3126,121.025 49.3126,122.025 50.5,124.5C 48.1815,124.008 46.1815,123.008 44.5,121.5 Z"/></g>
<g><path style="opacity:0.388" fill="#f6e0bb" d="M 108.5,121.5 C 109.167,121.5 109.833,121.5 110.5,121.5C 103.053,126.536 94.72,129.203 85.5,129.5C 93.3806,127.608 101.047,124.942 108.5,121.5 Z"/></g>
<g><path style="opacity:0.118" fill="#f9ead3" d="M 50.5,124.5 C 56.7869,126.093 63.1202,127.593 69.5,129C 74.8229,129.499 80.1563,129.666 85.5,129.5C 73.3336,131.602 61.6669,129.935 50.5,124.5 Z"/></g>
<g><path style="opacity:0.243" fill="#f8ebd6" d="M 116.5,156.5 C 125.318,157.493 134.318,157.827 143.5,157.5C 134.098,158.828 124.598,158.828 115,157.5C 114.667,145.167 114.333,132.833 114,120.5C 112.989,121.337 111.822,121.67 110.5,121.5C 111.78,120.069 113.447,119.402 115.5,119.5C 115.171,132.011 115.505,144.345 116.5,156.5 Z"/></g>
<g><path style="opacity:0.783" fill="#f3ca84" d="M 142.5,18.5 C 142.833,18.5 143.167,18.5 143.5,18.5C 144.833,64.8333 144.833,111.167 143.5,157.5C 134.318,157.827 125.318,157.493 116.5,156.5C 125.167,156.5 133.833,156.5 142.5,156.5C 142.5,128.833 142.5,101.167 142.5,73.5C 142.5,55.1667 142.5,36.8333 142.5,18.5 Z"/></g>
<g><path style="opacity:0.653" fill="#f1c787" d="M 116.5,156.5 C 115.505,144.345 115.171,132.011 115.5,119.5C 113.447,119.402 111.78,120.069 110.5,121.5C 109.833,121.5 109.167,121.5 108.5,121.5C 110.503,119.018 113.169,118.018 116.5,118.5C 116.5,131.167 116.5,143.833 116.5,156.5 Z"/></g>
</svg>
