<?xml version="1.0" standalone="no"?>
<!DOCTYPE svg PUBLIC "-//W3C//DTD SVG 20010904//EN"
 "http://www.w3.org/TR/2001/REC-SVG-20010904/DTD/svg10.dtd">
<svg version="1.0" xmlns="http://www.w3.org/2000/svg"
 width="1024.000000pt" height="1024.000000pt" viewBox="0 0 1024.000000 1024.000000"
 preserveAspectRatio="xMidYMid meet">

<g transform="translate(0.000000,1024.000000) scale(0.100000,-0.100000)"
fill="#000000" stroke="none">
<path d="M1297 8943 c-4 -3 -7 -777 -7 -1719 l0 -1712 44 -3 c24 -2 320 -4
658 -4 l613 0 5 1047 c3 708 8 1050 15 1057 8 8 346 12 1055 13 l1045 3 3 640
c1 352 0 650 -3 663 l-5 22 -1709 0 c-939 0 -1711 -3 -1714 -7z"/>
<path d="M5517 8943 c-9 -8 -9 -1285 -1 -1307 6 -14 107 -16 1050 -16 1021 0
1044 0 1054 -19 7 -13 10 -360 10 -1054 0 -819 3 -1036 13 -1039 10 -4 1239
-3 1290 1 16 1 17 88 15 1719 l-3 1717 -1711 3 c-941 1 -1714 -1 -1717 -5z"/>
<path d="M3975 6248 c-3 -7 -4 -524 -3 -1148 l3 -1135 1145 0 1145 0 0 1145 0
1145 -1143 3 c-909 2 -1144 0 -1147 -10z"/>
<path d="M1300 4710 c-7 -4 -9 -589 -8 -1721 l3 -1714 1715 0 1715 0 3 654 c2
517 0 656 -10 663 -7 4 -479 8 -1048 8 -792 0 -1039 3 -1048 12 -9 9 -12 257
-12 1055 0 574 -3 1044 -7 1044 -26 5 -1295 4 -1303 -1z"/>
<path d="M7642 4712 c-9 -3 -12 -268 -12 -1042 0 -571 -3 -1045 -6 -1054 -6
-14 -107 -16 -1049 -16 -867 0 -1044 -2 -1054 -14 -8 -9 -10 -191 -9 -662 l3
-649 1715 0 1715 0 3 1718 c2 1370 0 1717 -10 1719 -30 3 -1286 4 -1296 0z"/>
</g>
</svg>
