<?xml version="1.0" standalone="no"?>
<!DOCTYPE svg PUBLIC "-//W3C//DTD SVG 20010904//EN"
 "http://www.w3.org/TR/2001/REC-SVG-20010904/DTD/svg10.dtd">
<svg version="1.0" xmlns="http://www.w3.org/2000/svg"
 width="1600.000000pt" height="1480.000000pt" viewBox="0 0 1600.000000 1480.000000"
 preserveAspectRatio="xMidYMid meet">

<g transform="translate(0.000000,1480.000000) scale(0.100000,-0.100000)"
fill="#000000" stroke="none">
<path d="M1448 12962 l-1368 -1357 0 -4521 0 -4521 1368 -1096 1367 -1096
2303 -1 2302 0 0 3013 0 3014 -841 852 c-463 469 -840 853 -838 855 2 2 381
332 842 734 l837 732 0 865 0 865 -617 -529 c-1643 -1406 -3108 -2663 -3110
-2669 -2 -4 458 -448 1022 -987 l1024 -980 1 -1782 0 -1783 -1460 0 -1460 0 0
4515 0 4515 5035 0 5035 0 0 -4515 0 -4515 -1610 0 -1610 0 0 1783 0 1782
1045 978 c575 538 1045 983 1045 987 0 5 -862 726 -1915 1604 l-1915 1594 1
-866 0 -867 865 -729 c475 -400 864 -732 864 -736 0 -4 -389 -389 -865 -855
l-865 -847 0 -3014 0 -3014 2479 0 2478 0 1506 1098 1506 1097 0 4520 0 4520
-1505 1358 -1504 1357 -5038 0 -5037 -1 -1367 -1357z"/>
<path d="M7569 8755 c-290 -58 -525 -287 -600 -585 -18 -72 -21 -103 -16 -215
7 -169 36 -263 122 -396 77 -120 205 -229 333 -286 201 -89 443 -89 644 0 446
198 600 773 314 1171 -181 251 -491 372 -797 311z"/>
</g>
</svg>
