<?xml version="1.0" encoding="UTF-8"?>
<!DOCTYPE svg PUBLIC "-//W3C//DTD SVG 1.1//EN" "http://www.w3.org/Graphics/SVG/1.1/DTD/svg11.dtd">
<svg xmlns="http://www.w3.org/2000/svg" version="1.1" width="4608px" height="1790px" style="shape-rendering:geometricPrecision; text-rendering:geometricPrecision; image-rendering:optimizeQuality; fill-rule:evenodd; clip-rule:evenodd" xmlns:xlink="http://www.w3.org/1999/xlink">
<g><path style="opacity:1" fill="#d71820" d="M 2536.5,132.5 C 2537.46,133.721 2537.3,135.054 2536,136.5C 2246.63,648.372 1957.47,1160.37 1668.5,1672.5C 1668,1673.52 1667.33,1673.69 1666.5,1673C 1582.98,1584.98 1499.65,1496.82 1416.5,1408.5C 1420.33,1408.17 1424.17,1407.83 1428,1407.5C 1481.16,1409.66 1534.32,1411.16 1587.5,1412C 1904.05,985.623 2220.38,559.123 2536.5,132.5 Z"/></g>
<g><path style="opacity:0.728" fill="#1b62b7" d="M 2234.5,478.5 C 2235.64,475.553 2237.31,472.887 2239.5,470.5C 1556.5,469.5 873.5,469.167 190.5,469.5C 190.5,769.5 190.5,1069.5 190.5,1369.5C 569.5,1369.67 948.5,1369.5 1327.5,1369C 1326.26,1367.51 1326.76,1366.68 1329,1366.5C 1330.07,1366.53 1330.9,1366.86 1331.5,1367.5C 1329.06,1367.12 1328.39,1367.79 1329.5,1369.5C 949.501,1370.5 569.501,1370.83 189.5,1370.5C 189.5,1069.83 189.5,769.167 189.5,468.5C 873.5,468.167 1557.5,468.5 2241.5,469.5C 2239.49,472.829 2237.16,475.829 2234.5,478.5 Z"/></g>
<g><path style="opacity:1" fill="#0062a8" d="M 2234.5,478.5 C 2014.79,776.053 1794.46,1073.22 1573.5,1370C 1514.5,1370.67 1455.5,1370.67 1396.5,1370C 1374.81,1369.48 1353.14,1368.64 1331.5,1367.5C 1330.9,1366.86 1330.07,1366.53 1329,1366.5C 1326.76,1366.68 1326.26,1367.51 1327.5,1369C 948.5,1369.5 569.5,1369.67 190.5,1369.5C 190.5,1069.5 190.5,769.5 190.5,469.5C 873.5,469.167 1556.5,469.5 2239.5,470.5C 2237.31,472.887 2235.64,475.553 2234.5,478.5 Z"/></g>
<g><path style="opacity:1" fill="#0062a8" d="M 1882.5,1367.5 C 2050.74,1068.01 2219.74,769.006 2389.5,470.5C 3075.1,469.5 3760.76,469.167 4446.5,469.5C 4446.5,769.5 4446.5,1069.5 4446.5,1369.5C 3591.5,1370.17 2736.83,1369.5 1882.5,1367.5 Z"/></g>
<g><path style="opacity:0.559" fill="#1b62b6" d="M 1882.5,1367.5 C 2736.83,1369.5 3591.5,1370.17 4446.5,1369.5C 4446.5,1069.5 4446.5,769.5 4446.5,469.5C 3760.76,469.167 3075.1,469.5 2389.5,470.5C 3075.17,468.5 3761.17,467.834 4447.5,468.5C 4447.5,769.167 4447.5,1069.83 4447.5,1370.5C 3591.83,1370.67 2736.17,1370.5 1880.5,1370C 1881.07,1369.01 1881.73,1368.17 1882.5,1367.5 Z"/></g>
<g><path style="opacity:1" fill="#fefefe" d="M 2872.5,1148.5 C 2846.66,1148.83 2820.99,1148.5 2795.5,1147.5C 2796.03,1144.76 2796.86,1142.1 2798,1139.5C 2869.15,989.865 2939.81,839.865 3010,689.5C 3011.26,683.624 3014.76,681.457 3020.5,683C 3090.87,838.061 3161.2,993.061 3231.5,1148C 3204.16,1148.83 3176.83,1148.67 3149.5,1147.5C 3137.9,1121.14 3125.9,1094.97 3113.5,1069C 3046.17,1068.33 2978.83,1068.33 2911.5,1069C 2907.03,1075.43 2903.2,1082.26 2900,1089.5C 2893.68,1104.14 2887.35,1118.8 2881,1133.5C 2878.65,1138.89 2875.81,1143.89 2872.5,1148.5 Z"/></g>
<g><path style="opacity:1" fill="#fefefe" d="M 3386.5,864.5 C 3386.44,863.957 3386.11,863.624 3385.5,863.5C 3384.5,958.498 3384.17,1053.5 3384.5,1148.5C 3359.5,1148.5 3334.5,1148.5 3309.5,1148.5C 3309.5,993.167 3309.5,837.833 3309.5,682.5C 3315.07,681.416 3319.57,683.083 3323,687.5C 3416.3,786.799 3510.3,885.465 3605,983.5C 3605.5,887.834 3605.67,792.167 3605.5,696.5C 3630.83,696.5 3656.17,696.5 3681.5,696.5C 3681.5,852.167 3681.5,1007.83 3681.5,1163.5C 3678.81,1163.66 3676.15,1163.5 3673.5,1163C 3587.02,1073.85 3501.19,984.019 3416,893.5C 3406.3,883.631 3396.47,873.964 3386.5,864.5 Z"/></g>
<g><path style="opacity:1" fill="#fefefe" d="M 1531.5,704.5 C 1532.83,739.598 1532.83,774.598 1531.5,809.5C 1513.58,800.043 1495.58,790.876 1477.5,782C 1468.9,778.799 1460.23,775.799 1451.5,773C 1436.4,768.457 1421.06,767.457 1405.5,770C 1392.53,772.899 1382.69,780.066 1376,791.5C 1371.89,804.436 1373.89,816.436 1382,827.5C 1388.67,835.509 1396.5,842.009 1405.5,847C 1429.74,860.616 1454.07,873.949 1478.5,887C 1502.07,900.377 1522.9,917.211 1541,937.5C 1566.74,971.184 1574.74,1008.85 1565,1050.5C 1550.51,1108.54 1514.01,1144.37 1455.5,1158C 1409.79,1166.63 1364.45,1164.96 1319.5,1153C 1308.85,1149.68 1298.18,1146.34 1287.5,1143C 1283.98,1103.59 1280.98,1064.09 1278.5,1024.5C 1282.36,1025.43 1286.03,1026.93 1289.5,1029C 1316.15,1046.48 1345.15,1058.81 1376.5,1066C 1400.02,1071.03 1422.69,1068.7 1444.5,1059C 1463.29,1047.29 1469.46,1030.79 1463,1009.5C 1459.32,1000.98 1453.82,993.816 1446.5,988C 1417,968.41 1386.66,950.077 1355.5,933C 1337.27,922.114 1320.77,908.948 1306,893.5C 1273,853.168 1265.66,808.501 1284,759.5C 1301.3,724.767 1328.46,701.6 1365.5,690C 1394.43,682.135 1423.76,680.469 1453.5,685C 1463.81,687.107 1474.14,689.107 1484.5,691C 1500.03,696.01 1515.7,700.51 1531.5,704.5 Z"/></g>
<g><path style="opacity:1" fill="#fefefe" d="M 2496.5,696.5 C 2529.17,696.333 2561.84,696.5 2594.5,697C 2623.11,697.389 2650.45,703.389 2676.5,715C 2712.52,735.344 2731.19,766.344 2732.5,808C 2733.91,846.187 2718.58,875.187 2686.5,895C 2678.96,899.27 2671.29,903.27 2663.5,907C 2673.76,911.986 2684.1,916.986 2694.5,922C 2719.56,938.093 2734.72,960.926 2740,990.5C 2746.07,1026.71 2740.07,1060.71 2722,1092.5C 2705.65,1113.5 2684.81,1128.34 2659.5,1137C 2631.42,1144.93 2602.76,1148.93 2573.5,1149C 2532.33,1149.83 2491.33,1149.66 2450.5,1148.5C 2450.5,998.167 2450.5,847.833 2450.5,697.5C 2466.01,697.83 2481.34,697.496 2496.5,696.5 Z"/></g>
<g><path style="opacity:1" fill="#94b5dd" d="M 544.5,698.5 C 502.33,698.168 460.33,698.501 418.5,699.5C 417.957,699.44 417.624,699.107 417.5,698.5C 459.998,697.169 502.331,697.169 544.5,698.5 Z"/></g>
<g><path style="opacity:1" fill="#fefefe" d="M 4202.5,1147.5 C 4170.34,1148.5 4138,1148.83 4105.5,1148.5C 4103.1,1148.61 4101.26,1147.61 4100,1145.5C 4034.7,1076.53 3969.03,1007.86 3903,939.5C 3902.82,1009.18 3902.32,1078.85 3901.5,1148.5C 3875.83,1148.5 3850.17,1148.5 3824.5,1148.5C 3824.5,998.167 3824.5,847.833 3824.5,697.5C 3850.17,697.5 3875.83,697.5 3901.5,697.5C 3901.08,764.178 3901.58,830.845 3903,897.5C 3965.47,830.698 4028.3,764.198 4091.5,698C 4106.74,696.848 4122.08,696.348 4137.5,696.5C 4152.17,696.833 4166.83,697.167 4181.5,697.5C 4179.19,700.975 4176.69,704.308 4174,707.5C 4108.8,775.698 4043.97,844.198 3979.5,913C 3983.29,918.456 3987.45,923.623 3992,928.5C 4063.1,1000.76 4133.27,1073.76 4202.5,1147.5 Z"/></g>
<g><path style="opacity:1" fill="#fefefe" d="M 544.5,698.5 C 575.774,745.459 607.108,792.459 638.5,839.5C 672.307,792.527 706.307,745.693 740.5,699C 778.167,698.333 815.833,698.333 853.5,699C 795.947,776.219 738.781,853.719 682,931.5C 681.5,1001.5 681.333,1071.5 681.5,1141.5C 680.532,1143.61 680.198,1145.94 680.5,1148.5C 646.167,1148.5 611.833,1148.5 577.5,1148.5C 577.667,1077.5 577.5,1006.5 577,935.5C 523.426,857.359 470.593,778.692 418.5,699.5C 460.33,698.501 502.33,698.168 544.5,698.5 Z"/></g>
<g><path style="opacity:1" fill="#fefefe" d="M 1175.5,698.5 C 1175.5,729.167 1175.5,759.833 1175.5,790.5C 1118.17,790.5 1060.83,790.5 1003.5,790.5C 1003.5,818.167 1003.5,845.833 1003.5,873.5C 1052.5,873.5 1101.5,873.5 1150.5,873.5C 1150.5,903.833 1150.5,934.167 1150.5,964.5C 1101.66,964.168 1053,964.501 1004.5,965.5C 1004.5,995.167 1004.5,1024.83 1004.5,1054.5C 1061.66,1055.5 1119,1055.83 1176.5,1055.5C 1176.5,1086.5 1176.5,1117.5 1176.5,1148.5C 1153.83,1148.5 1131.17,1148.5 1108.5,1148.5C 1039.83,1148.5 971.167,1148.5 902.5,1148.5C 902.5,1121.83 902.5,1095.17 902.5,1068.5C 902.5,945.167 902.5,821.833 902.5,698.5C 993.5,698.5 1084.5,698.5 1175.5,698.5 Z"/></g>
<g><path style="opacity:1" fill="#aec6e5" d="M 2496.5,696.5 C 2481.34,697.496 2466.01,697.83 2450.5,697.5C 2450.5,847.833 2450.5,998.167 2450.5,1148.5C 2449.5,998.001 2449.17,847.334 2449.5,696.5C 2465.17,696.5 2480.83,696.5 2496.5,696.5 Z"/></g>
<g><path style="opacity:1" fill="#0262a8" d="M 2529.5,755.5 C 2560.75,753.603 2591.41,756.77 2621.5,765C 2643.78,774.22 2654.78,790.887 2654.5,815C 2655.14,842.07 2643.47,861.737 2619.5,874C 2589.45,887.612 2558.11,891.445 2525.5,885.5C 2525.5,842.5 2525.5,799.5 2525.5,756.5C 2527.1,756.768 2528.43,756.434 2529.5,755.5 Z"/></g>
<g><path style="opacity:1" fill="#739dd2" d="M 1175.5,698.5 C 1084.5,698.5 993.5,698.5 902.5,698.5C 902.5,821.833 902.5,945.167 902.5,1068.5C 902.167,1068.5 901.833,1068.5 901.5,1068.5C 901.5,944.833 901.5,821.167 901.5,697.5C 993.002,697.167 1084.33,697.501 1175.5,698.5 Z"/></g>
<g><path style="opacity:1" fill="#91b3dc" d="M 1531.5,704.5 C 1532.83,721.82 1533.5,739.487 1533.5,757.5C 1533.17,775.167 1532.83,792.833 1532.5,810.5C 1531.89,810.376 1531.56,810.043 1531.5,809.5C 1532.83,774.598 1532.83,739.598 1531.5,704.5 Z"/></g>
<g><path style="opacity:1" fill="#0462a8" d="M 3084.5,1002.5 C 3036.5,1003.83 2988.5,1003.83 2940.5,1002.5C 2962.93,946.637 2987.27,891.637 3013.5,837.5C 3037.99,892.142 3061.65,947.142 3084.5,1002.5 Z"/></g>
<g><path style="opacity:1" fill="#95b5dd" d="M 1175.5,790.5 C 1118.67,791.499 1061.67,791.832 1004.5,791.5C 1004.5,818.5 1004.5,845.5 1004.5,872.5C 1053.67,872.168 1102.67,872.501 1151.5,873.5C 1151.17,873.5 1150.83,873.5 1150.5,873.5C 1101.5,873.5 1052.5,873.5 1003.5,873.5C 1003.5,845.833 1003.5,818.167 1003.5,790.5C 1060.83,790.5 1118.17,790.5 1175.5,790.5 Z"/></g>
<g><path style="opacity:1" fill="#0262a8" d="M 2535.5,942.5 C 2565.06,941.025 2594.06,944.192 2622.5,952C 2646.83,960.126 2660.66,976.96 2664,1002.5C 2668.09,1047.18 2648.26,1074.01 2604.5,1083C 2582.1,1088.1 2559.44,1089.77 2536.5,1088C 2533.03,1087.7 2529.69,1086.87 2526.5,1085.5C 2525.5,1038.5 2525.17,991.505 2525.5,944.5C 2529.01,944.101 2532.34,943.434 2535.5,942.5 Z"/></g>
<g><path style="opacity:1" fill="#c5d7ec" d="M 1150.5,873.5 C 1150.83,873.5 1151.17,873.5 1151.5,873.5C 1151.5,904.167 1151.5,934.833 1151.5,965.5C 1102.5,965.5 1053.5,965.5 1004.5,965.5C 1053,964.501 1101.66,964.168 1150.5,964.5C 1150.5,934.167 1150.5,903.833 1150.5,873.5 Z"/></g>
<g><path style="opacity:1" fill="#719dd2" d="M 2940.5,1002.5 C 2988.5,1003.83 3036.5,1003.83 3084.5,1002.5C 3085.04,1002.56 3085.38,1002.89 3085.5,1003.5C 3036.83,1004.83 2988.17,1004.83 2939.5,1003.5C 2939.62,1002.89 2939.96,1002.56 2940.5,1002.5 Z"/></g>
<g><path style="opacity:1" fill="#4f86c7" d="M 3386.5,864.5 C 3385.83,959.167 3385.17,1053.83 3384.5,1148.5C 3384.17,1053.5 3384.5,958.498 3385.5,863.5C 3386.11,863.624 3386.44,863.957 3386.5,864.5 Z"/></g>
<g><path style="opacity:1" fill="#b8cde8" d="M 1004.5,1054.5 C 1062.17,1054.5 1119.83,1054.5 1177.5,1054.5C 1177.5,1086.17 1177.5,1117.83 1177.5,1149.5C 1154.5,1149.5 1131.5,1149.5 1108.5,1149.5C 1108.5,1149.17 1108.5,1148.83 1108.5,1148.5C 1131.17,1148.5 1153.83,1148.5 1176.5,1148.5C 1176.5,1117.5 1176.5,1086.5 1176.5,1055.5C 1119,1055.83 1061.66,1055.5 1004.5,1054.5 Z"/></g>
<g><path style="opacity:1" fill="#8db0da" d="M 681.5,1141.5 C 681.5,1144.17 681.5,1146.83 681.5,1149.5C 646.663,1149.83 611.996,1149.5 577.5,1148.5C 611.833,1148.5 646.167,1148.5 680.5,1148.5C 680.198,1145.94 680.532,1143.61 681.5,1141.5 Z"/></g>
<g><path style="opacity:1" fill="#8cafda" d="M 901.5,1068.5 C 901.833,1068.5 902.167,1068.5 902.5,1068.5C 902.5,1095.17 902.5,1121.83 902.5,1148.5C 971.167,1148.5 1039.83,1148.5 1108.5,1148.5C 1108.5,1148.83 1108.5,1149.17 1108.5,1149.5C 1039.5,1149.5 970.5,1149.5 901.5,1149.5C 901.5,1122.5 901.5,1095.5 901.5,1068.5 Z"/></g>
<g><path style="opacity:1" fill="#8cb0da" d="M 2795.5,1147.5 C 2820.99,1148.5 2846.66,1148.83 2872.5,1148.5C 2846.66,1149.83 2820.66,1149.83 2794.5,1148.5C 2794.62,1147.89 2794.96,1147.56 2795.5,1147.5 Z"/></g>
<g><path style="opacity:1" fill="#85abd8" d="M 4202.5,1147.5 C 4203.04,1147.56 4203.38,1147.89 4203.5,1148.5C 4170.67,1149.83 4138,1149.83 4105.5,1148.5C 4138,1148.83 4170.34,1148.5 4202.5,1147.5 Z"/></g>
</svg>
